<?plantuml 1.2026.2?><svg xmlns="http://www.w3.org/2000/svg" xmlns:xlink="http://www.w3.org/1999/xlink" contentStyleType="text/css" data-diagram-type="SEQUENCE" height="753px" preserveAspectRatio="none" style="width:873px;height:753px;background:#FFFFFF;" version="1.1" viewBox="0 0 873 753" width="873px" zoomAndPan="magnify"><defs/><g><g><title>.CardCollector</title><rect fill="#FFFFFF" height="658.6797" style="stroke:#181818;stroke-width:1;" width="10" x="88.9512" y="69.9609"/></g><g><title>.CommandContext</title><rect fill="#FFFFFF" height="48.9609" style="stroke:#181818;stroke-width:1;" width="10" x="236.0474" y="241.625"/></g><g><title>.CommandContext</title><rect fill="#FFFFFF" height="30.3516" style="stroke:#181818;stroke-width:1;" width="10" x="236.0474" y="351.2891"/></g><g><title>.CommandContext</title><rect fill="#FFFFFF" height="30.3516" style="stroke:#181818;stroke-width:1;" width="10" x="236.0474" y="527.8828"/></g><g><title>.Parser</title><rect fill="#FFFFFF" height="103.3125" style="stroke:#181818;stroke-width:1;" width="10" x="363.4058" y="100.3125"/></g><g><title>.UndoCommand</title><rect fill="#FFFFFF" height="48.9609" style="stroke:#181818;stroke-width:1;" width="10" x="483.3745" y="124.3125"/></g><g><title>.UndoCommand</title><rect fill="#FFFFFF" height="379.7031" style="stroke:#181818;stroke-width:1;" width="10" x="483.3745" y="320.9375"/></g><g><title>.Command</title><rect fill="#FFFFFF" height="74.7031" style="stroke:#181818;stroke-width:1;" width="10" x="612.5776" y="588.5859"/></g><g><title>.Ui</title><rect fill="#FFFFFF" height="14" style="stroke:#181818;stroke-width:1;" width="10" x="809.2065" y="437.3438"/></g><g><title>.Ui</title><rect fill="#FFFFFF" height="14" style="stroke:#181818;stroke-width:1;" width="10" x="809.2065" y="618.9375"/></g><rect fill="#FFFFFF" height="274.6484" style="stroke:#000000;stroke-width:1.5;" width="843.9932" x="22.2134" y="396.6406"/><rect fill="#FFFFFF" height="181.5938" style="stroke:none;stroke-width:1;" width="843.9932" x="22.2134" y="489.6953"/><g class="participant-lifeline" data-entity-uid="part1" data-qualified-name="CardCollector" id="part1-lifeline"><g><title>.CardCollector</title><rect fill="#000000" fill-opacity="0.00000" height="709.0313" width="8" x="89.9512" y="37.6094"/><line style="stroke:#181818;stroke-width:0.5;stroke-dasharray:5,5;" x1="93.2134" x2="93.2134" y1="37.6094" y2="746.6406"/></g></g><g class="participant-lifeline" data-entity-uid="part2" data-qualified-name="CommandContext" id="part2-lifeline"><g><title>.CommandContext</title><rect fill="#000000" fill-opacity="0.00000" height="489.7109" width="8" x="237.0474" y="256.9297"/><line style="stroke:#181818;stroke-width:0.5;stroke-dasharray:5,5;" x1="240.689" x2="240.689" y1="256.9297" y2="746.6406"/></g></g><g class="participant-lifeline" data-entity-uid="part3" data-qualified-name="Parser" id="part3-lifeline"><g><title>.Parser</title><rect fill="#000000" fill-opacity="0.00000" height="709.0313" width="8" x="364.4058" y="37.6094"/><line style="stroke:#181818;stroke-width:0.5;stroke-dasharray:5,5;" x1="368.4058" x2="368.4058" y1="37.6094" y2="746.6406"/></g></g><g class="participant-lifeline" data-entity-uid="part4" data-qualified-name="UndoCommand" id="part4-lifeline"><g><title>.UndoCommand</title><rect fill="#000000" fill-opacity="0.00000" height="607.0234" width="8" x="484.3745" y="139.6172"/><line style="stroke:#181818;stroke-width:0.5;stroke-dasharray:5,5;" x1="487.4058" x2="487.4058" y1="139.6172" y2="746.6406"/></g></g><g class="participant-lifeline" data-entity-uid="part5" data-qualified-name="Command" id="part5-lifeline"><g><title>.Command</title><rect fill="#000000" fill-opacity="0.00000" height="709.0313" width="8" x="613.5776" y="37.6094"/><line style="stroke:#181818;stroke-width:0.5;stroke-dasharray:5,5;" x1="617.3433" x2="617.3433" y1="37.6094" y2="746.6406"/></g></g><g class="participant-lifeline" data-entity-uid="part6" data-qualified-name="Ui" id="part6-lifeline"><g><title>.Ui</title><rect fill="#000000" fill-opacity="0.00000" height="709.0313" width="8" x="810.2065" y="37.6094"/><line style="stroke:#181818;stroke-width:0.5;stroke-dasharray:5,5;" x1="814.2065" x2="814.2065" y1="37.6094" y2="746.6406"/></g></g><g class="participant participant-head" data-entity-uid="part1" data-qualified-name="CardCollector" id="part1-head"><rect fill="#E2E2F0" height="31.6094" rx="2.5" ry="2.5" style="stroke:#181818;stroke-width:0.5;" width="103.4756" x="42.2134" y="5"/><text fill="#000000" font-family="sans-serif" font-size="14" lengthAdjust="spacing" textLength="89.4756" x="49.2134" y="26.5332">:CardCollector</text></g><g class="participant participant-head" data-entity-uid="part3" data-qualified-name="Parser" id="part3-head"><rect fill="#4536FF" height="31.6094" rx="2.5" ry="2.5" style="stroke:#181818;stroke-width:0.5;" width="64" x="336.4058" y="5"/><text fill="#FFFFFF" font-family="sans-serif" font-size="14" lengthAdjust="spacing" textLength="45.124" x="345.8438" y="26.5332">:Parser</text></g><g class="participant participant-head" data-entity-uid="part5" data-qualified-name="Command" id="part5-head"><rect fill="#BC00D1" height="31.6094" rx="2.5" ry="2.5" style="stroke:#181818;stroke-width:0.5;" width="82.4688" x="576.3433" y="5"/><text fill="#FFFFFF" font-family="sans-serif" font-size="14" lengthAdjust="spacing" textLength="68.4688" x="583.3433" y="26.5332">:Command</text></g><g class="participant participant-head" data-entity-uid="part6" data-qualified-name="Ui" id="part6-head"><rect fill="#D16C00" height="31.6094" rx="2.5" ry="2.5" style="stroke:#181818;stroke-width:0.5;" width="64" x="782.2065" y="5"/><text fill="#FFFFFF" font-family="sans-serif" font-size="14" lengthAdjust="spacing" textLength="17.1104" x="805.6514" y="26.5332">:Ui</text></g><g><title>.CardCollector</title><rect fill="#FFFFFF" height="658.6797" style="stroke:#181818;stroke-width:1;" width="10" x="88.9512" y="69.9609"/></g><g><title>.CommandContext</title><rect fill="#FFFFFF" height="48.9609" style="stroke:#181818;stroke-width:1;" width="10" x="236.0474" y="241.625"/></g><g><title>.CommandContext</title><rect fill="#FFFFFF" height="30.3516" style="stroke:#181818;stroke-width:1;" width="10" x="236.0474" y="351.2891"/></g><g><title>.CommandContext</title><rect fill="#FFFFFF" height="30.3516" style="stroke:#181818;stroke-width:1;" width="10" x="236.0474" y="527.8828"/></g><g><title>.Parser</title><rect fill="#FFFFFF" height="103.3125" style="stroke:#181818;stroke-width:1;" width="10" x="363.4058" y="100.3125"/></g><g><title>.UndoCommand</title><rect fill="#FFFFFF" height="48.9609" style="stroke:#181818;stroke-width:1;" width="10" x="483.3745" y="124.3125"/></g><g><title>.UndoCommand</title><rect fill="#FFFFFF" height="379.7031" style="stroke:#181818;stroke-width:1;" width="10" x="483.3745" y="320.9375"/></g><g><title>.Command</title><rect fill="#FFFFFF" height="74.7031" style="stroke:#181818;stroke-width:1;" width="10" x="612.5776" y="588.5859"/></g><g><title>.Ui</title><rect fill="#FFFFFF" height="14" style="stroke:#181818;stroke-width:1;" width="10" x="809.2065" y="437.3438"/></g><g><title>.Ui</title><rect fill="#FFFFFF" height="14" style="stroke:#181818;stroke-width:1;" width="10" x="809.2065" y="618.9375"/></g><g class="message" data-entity-1="part1" data-entity-2="part1" id="msg1"><polygon fill="#181818" points="76.9512,65.9609,86.9512,69.9609,76.9512,73.9609,80.9512,69.9609" style="stroke:#181818;stroke-width:1;"/><line style="stroke:#181818;stroke-width:1;" x1="0" x2="82.9512" y1="69.9609" y2="69.9609"/><text fill="#000000" font-family="sans-serif" font-size="13" lengthAdjust="spacing" textLength="69.9512" x="9.5" y="65.1045">input "undo"</text></g><g class="message" data-entity-1="part1" data-entity-2="part3" id="msg2"><polygon fill="#181818" points="351.4058,96.3125,361.4058,100.3125,351.4058,104.3125,355.4058,100.3125" style="stroke:#181818;stroke-width:1;"/><line style="stroke:#181818;stroke-width:1;" x1="98.9512" x2="357.4058" y1="100.3125" y2="100.3125"/><text fill="#000000" font-family="sans-serif" font-size="13" lengthAdjust="spacing" textLength="69.3672" x="196.4949" y="95.4561">parse(input)</text></g><g class="message" data-entity-1="part3" data-entity-2="part4" id="msg3"><polygon fill="#181818" points="418.4058,110.3125,428.4058,114.3125,418.4058,118.3125,422.4058,114.3125" style="stroke:#181818;stroke-width:1;"/><line style="stroke:#181818;stroke-width:1;" x1="373.4058" x2="424.4058" y1="114.3125" y2="114.3125"/></g><rect fill="#BC00D1" height="31.6094" rx="2.5" ry="2.5" style="stroke:#181818;stroke-width:0.5;" width="115.9375" x="430.4058" y="108.3125"/><text fill="#FFFFFF" font-family="sans-serif" font-size="14" lengthAdjust="spacing" textLength="101.9375" x="437.4058" y="129.8457">:UndoCommand</text><g class="message" data-entity-1="part4" data-entity-2="part3" id="msg5"><polygon fill="#181818" points="384.4058,169.2734,374.4058,173.2734,384.4058,177.2734,380.4058,173.2734" style="stroke:#181818;stroke-width:1;"/><line style="stroke:#181818;stroke-width:1;stroke-dasharray:2,2;" x1="378.4058" x2="487.3745" y1="173.2734" y2="173.2734"/><text fill="#000000" font-family="sans-serif" font-size="13" lengthAdjust="spacing" textLength="57.0781" x="402.3511" y="168.417">command</text></g><g class="message" data-entity-1="part3" data-entity-2="part1" id="msg6"><polygon fill="#181818" points="109.9512,199.625,99.9512,203.625,109.9512,207.625,105.9512,203.625" style="stroke:#181818;stroke-width:1;"/><line style="stroke:#181818;stroke-width:1;stroke-dasharray:2,2;" x1="103.9512" x2="367.4058" y1="203.625" y2="203.625"/><text fill="#000000" font-family="sans-serif" font-size="13" lengthAdjust="spacing" textLength="57.0781" x="205.1394" y="198.7686">command</text></g><g class="message" data-entity-1="part1" data-entity-2="part2" id="msg8"><polygon fill="#181818" points="163.689,227.625,173.689,231.625,163.689,235.625,167.689,231.625" style="stroke:#181818;stroke-width:1;"/><line style="stroke:#181818;stroke-width:1;" x1="98.9512" x2="169.689" y1="231.625" y2="231.625"/></g><rect fill="#D1006C" height="31.6094" rx="2.5" ry="2.5" style="stroke:#181818;stroke-width:0.5;" width="130.7168" x="175.689" y="225.625"/><text fill="#FFFFFF" font-family="sans-serif" font-size="14" lengthAdjust="spacing" textLength="116.7168" x="182.689" y="247.1582">:CommandContext</text><g class="message" data-entity-1="part2" data-entity-2="part1" id="msg10"><polygon fill="#181818" points="109.9512,286.5859,99.9512,290.5859,109.9512,294.5859,105.9512,290.5859" style="stroke:#181818;stroke-width:1;"/><line style="stroke:#181818;stroke-width:1;stroke-dasharray:2,2;" x1="103.9512" x2="240.0474" y1="290.5859" y2="290.5859"/><text fill="#000000" font-family="sans-serif" font-size="13" lengthAdjust="spacing" textLength="41.9136" x="149.0425" y="285.7295">context</text></g><g class="message" data-entity-1="part1" data-entity-2="part4" id="msg11"><polygon fill="#181818" points="471.3745,316.9375,481.3745,320.9375,471.3745,324.9375,475.3745,320.9375" style="stroke:#181818;stroke-width:1;"/><line style="stroke:#181818;stroke-width:1;" x1="98.9512" x2="477.3745" y1="320.9375" y2="320.9375"/><text fill="#000000" font-family="sans-serif" font-size="13" lengthAdjust="spacing" textLength="96.1035" x="243.1111" y="316.0811">execute(context)</text></g><g class="message" data-entity-1="part4" data-entity-2="part2" id="msg12"><polygon fill="#181818" points="257.0474,347.2891,247.0474,351.2891,257.0474,355.2891,253.0474,351.2891" style="stroke:#181818;stroke-width:1;"/><line style="stroke:#181818;stroke-width:1;" x1="251.0474" x2="482.3745" y1="351.2891" y2="351.2891"/><text fill="#000000" font-family="sans-serif" font-size="13" lengthAdjust="spacing" textLength="127.1436" x="301.1392" y="346.4326">getCommandHistory()</text></g><g class="message" data-entity-1="part2" data-entity-2="part4" id="msg13"><polygon fill="#181818" points="471.3745,377.6406,481.3745,381.6406,471.3745,385.6406,475.3745,381.6406" style="stroke:#181818;stroke-width:1;"/><line style="stroke:#181818;stroke-width:1;stroke-dasharray:2,2;" x1="241.0474" x2="477.3745" y1="381.6406" y2="381.6406"/><text fill="#000000" font-family="sans-serif" font-size="13" lengthAdjust="spacing" textLength="142.3081" x="291.0569" y="376.7842">commandHistory (Stack)</text></g><path d="M22.2134,396.6406 L82.3843,396.6406 L82.3843,404.9922 L72.3843,414.9922 L22.2134,414.9922 L22.2134,396.6406" fill="#EEEEEE" style="stroke:#000000;stroke-width:1.5;"/><rect fill="none" height="274.6484" style="stroke:#000000;stroke-width:1.5;" width="843.9932" x="22.2134" y="396.6406"/><text fill="#000000" font-family="sans-serif" font-size="13" font-weight="bold" lengthAdjust="spacing" textLength="15.1709" x="37.2134" y="411.1357">alt</text><text fill="#000000" font-family="sans-serif" font-size="11" font-weight="bold" lengthAdjust="spacing" textLength="144.8638" x="97.3843" y="410.0596">[commandHistory is empty]</text><g class="message" data-entity-1="part4" data-entity-2="part6" id="msg14"><polygon fill="#181818" points="797.2065,433.3438,807.2065,437.3438,797.2065,441.3438,801.2065,437.3438" style="stroke:#181818;stroke-width:1;"/><line style="stroke:#181818;stroke-width:1;" x1="493.3745" x2="803.2065" y1="437.3438" y2="437.3438"/><text fill="#000000" font-family="sans-serif" font-size="13" lengthAdjust="spacing" textLength="141.4829" x="580.5491" y="432.4873">echo("Nothing to undo.")</text></g><g class="message" data-entity-1="part6" data-entity-2="part4" id="msg15"><polygon fill="#181818" points="504.3745,447.3438,494.3745,451.3438,504.3745,455.3438,500.3745,451.3438" style="stroke:#181818;stroke-width:1;"/><line style="stroke:#181818;stroke-width:1;stroke-dasharray:2,2;" x1="498.3745" x2="813.2065" y1="451.3438" y2="451.3438"/></g><g class="message" data-entity-1="part4" data-entity-2="part1" id="msg16"><polygon fill="#181818" points="109.9512,477.6953,99.9512,481.6953,109.9512,485.6953,105.9512,481.6953" style="stroke:#181818;stroke-width:1;"/><line style="stroke:#181818;stroke-width:1;stroke-dasharray:2,2;" x1="103.9512" x2="482.3745" y1="481.6953" y2="481.6953"/><text fill="#000000" font-family="sans-serif" font-size="13" lengthAdjust="spacing" textLength="93.9263" x="244.1997" y="476.8389">commandResult</text></g><line style="stroke:#000000;stroke-width:1;stroke-dasharray:2,2;" x1="22.2134" x2="866.2065" y1="490.6953" y2="490.6953"/><text fill="#000000" font-family="sans-serif" font-size="11" font-weight="bold" lengthAdjust="spacing" textLength="165.0215" x="27.2134" y="502.1143">[commandHistory is not empty]</text><g class="message" data-entity-1="part4" data-entity-2="part2" id="msg17"><polygon fill="#181818" points="257.0474,523.8828,247.0474,527.8828,257.0474,531.8828,253.0474,527.8828" style="stroke:#181818;stroke-width:1;"/><line style="stroke:#181818;stroke-width:1;" x1="251.0474" x2="482.3745" y1="527.8828" y2="527.8828"/><text fill="#000000" font-family="sans-serif" font-size="13" lengthAdjust="spacing" textLength="131.4854" x="298.9683" y="523.0264">commandHistory.pop()</text></g><g class="message" data-entity-1="part2" data-entity-2="part4" id="msg18"><polygon fill="#181818" points="471.3745,554.2344,481.3745,558.2344,471.3745,562.2344,475.3745,558.2344" style="stroke:#181818;stroke-width:1;"/><line style="stroke:#181818;stroke-width:1;stroke-dasharray:2,2;" x1="241.0474" x2="477.3745" y1="558.2344" y2="558.2344"/><text fill="#000000" font-family="sans-serif" font-size="13" lengthAdjust="spacing" textLength="80.1963" x="322.1128" y="553.3779">lastCommand</text></g><g class="message" data-entity-1="part4" data-entity-2="part5" id="msg19"><polygon fill="#181818" points="600.5776,584.5859,610.5776,588.5859,600.5776,592.5859,604.5776,588.5859" style="stroke:#181818;stroke-width:1;"/><line style="stroke:#181818;stroke-width:1;" x1="493.3745" x2="606.5776" y1="588.5859" y2="588.5859"/><text fill="#000000" font-family="sans-serif" font-size="13" lengthAdjust="spacing" textLength="79.4917" x="513.2302" y="583.7295">undo(context)</text></g><g class="message" data-entity-1="part5" data-entity-2="part6" id="msg20"><polygon fill="#181818" points="797.2065,614.9375,807.2065,618.9375,797.2065,622.9375,801.2065,618.9375" style="stroke:#181818;stroke-width:1;"/><line style="stroke:#181818;stroke-width:1;" x1="622.5776" x2="803.2065" y1="618.9375" y2="618.9375"/><text fill="#000000" font-family="sans-serif" font-size="13" lengthAdjust="spacing" textLength="167.6289" x="632.0776" y="614.0811">printUndoSuccess(targetList)</text></g><g class="message" data-entity-1="part6" data-entity-2="part5" id="msg21"><polygon fill="#181818" points="633.5776,628.9375,623.5776,632.9375,633.5776,636.9375,629.5776,632.9375" style="stroke:#181818;stroke-width:1;"/><line style="stroke:#181818;stroke-width:1;stroke-dasharray:2,2;" x1="627.5776" x2="813.2065" y1="632.9375" y2="632.9375"/></g><g class="message" data-entity-1="part5" data-entity-2="part4" id="msg22"><polygon fill="#181818" points="504.3745,659.2891,494.3745,663.2891,504.3745,667.2891,500.3745,663.2891" style="stroke:#181818;stroke-width:1;"/><line style="stroke:#181818;stroke-width:1;stroke-dasharray:2,2;" x1="498.3745" x2="616.5776" y1="663.2891" y2="663.2891"/><text fill="#000000" font-family="sans-serif" font-size="13" lengthAdjust="spacing" textLength="93.9263" x="508.5129" y="658.4326">commandResult</text></g><g class="message" data-entity-1="part4" data-entity-2="part1" id="msg23"><polygon fill="#181818" points="109.9512,696.6406,99.9512,700.6406,109.9512,704.6406,105.9512,700.6406" style="stroke:#181818;stroke-width:1;"/><line style="stroke:#181818;stroke-width:1;stroke-dasharray:2,2;" x1="103.9512" x2="487.3745" y1="700.6406" y2="700.6406"/><text fill="#000000" font-family="sans-serif" font-size="13" lengthAdjust="spacing" textLength="93.9263" x="246.6997" y="695.7842">commandResult</text></g><g class="message" data-entity-1="part1" data-entity-2="part1" id="msg25"><polygon fill="#181818" points="11,724.6406,1,728.6406,11,732.6406,7,728.6406" style="stroke:#181818;stroke-width:1;"/><line style="stroke:#181818;stroke-width:1;stroke-dasharray:2,2;" x1="5" x2="92.9512" y1="728.6406" y2="728.6406"/></g><line style="stroke:#A80036;stroke-width:2;" x1="232.0474" x2="250.0474" y1="719.6406" y2="737.6406"/><line style="stroke:#A80036;stroke-width:2;" x1="232.0474" x2="250.0474" y1="737.6406" y2="719.6406"/><line style="stroke:#A80036;stroke-width:2;" x1="479.3745" x2="497.3745" y1="719.6406" y2="737.6406"/><line style="stroke:#A80036;stroke-width:2;" x1="479.3745" x2="497.3745" y1="737.6406" y2="719.6406"/><?plantuml-src bLJRQkCm47tNLsZzP3ya7n1A8NWBMsWkE0sqB4iHyj28LIHZZKlpzvLZrv5aEQ5-icTqPiuvCzOleRXiIg0xF4cOLyrH4bAn6WKN5LD8aqNEwZBNKW97NIUK6Uf5mjFwU6JAfXN29tR7lH3DDwlLSlqxtwoV7rwUt_BDqwPusnQFgsNn6XJRijf0rxDxfTjbiNieheBsgjHzopFI-VxkVHNlOd-2sukkdQ3xn-0WcTtxfj455QfgBAonx19264VnmH02RtsGhTBRiA1L-vAUYsGNT9ScXDVGVZhIIO-qDTpeW7I3hcCpjodl3vGGnGqz8d8Zq9vieF7lGPGbg7z3tq6DlqTZRuBynT80vwzZd6ntr24R51btTqrRKFW4tY2aVQKiRhJlTAZ0bda7x6D_XB6DJcds4rq-9-vLekaE6V-VNHF998OeOIWSApmHQf-0lbrzgvmVT9giDHw4UgUeQRlXyoGx0oukYAw027cUm-v-2J9kDRrV1PX68W5f8C9SQPncFpBVnyyhNQM1Yi2lDdTp2f8PdD0QsZzDqjPfRRsiLumMSGaDywbgeR2jkciu1sDIPBLTioUhykgCRip7dKrqxVh9n2KJ6FqDDsSySGdTlaxkPhFWcdK9UGcRCLZhKpYQxx3R-0i0?></g></svg>