<?plantuml 1.2026.2?><svg xmlns="http://www.w3.org/2000/svg" xmlns:xlink="http://www.w3.org/1999/xlink" contentStyleType="text/css" data-diagram-type="SEQUENCE" height="452.2px" preserveAspectRatio="none" style="width:580px;height:452px;background:#FFFFFF;" version="1.1" viewBox="0 0 580 452" width="580.3px" zoomAndPan="magnify"><defs/><g><g><title>.CardCollector</title><rect fill="#FFFFFF" height="385.0178" style="stroke:#181818;stroke-width:0.7;" width="7" x="108.2901" y="50.3385"/></g><g><title>.Parser</title><rect fill="#FFFFFF" height="74.3422" style="stroke:#181818;stroke-width:0.7;" width="7" x="187.9066" y="72.2422"/></g><g><title>.HistoryCommand</title><rect fill="#FFFFFF" height="35.6385" style="stroke:#181818;stroke-width:0.7;" width="7" x="275.4162" y="89.0422"/></g><g><title>.HistoryCommand</title><rect fill="#FFFFFF" height="185.0297" style="stroke:#181818;stroke-width:0.7;" width="7" x="275.4162" y="230.7266"/></g><g><title>.CommandContext</title><rect fill="#FFFFFF" height="35.6385" style="stroke:#181818;stroke-width:0.7;" width="7" x="386.2766" y="173.1844"/></g><g><title>.CommandContext</title><rect fill="#FFFFFF" height="21.9037" style="stroke:#181818;stroke-width:0.7;" width="7" x="386.2766" y="252.6303"/></g><g><title>.CommandContext</title><rect fill="#FFFFFF" height="21.9037" style="stroke:#181818;stroke-width:0.7;" width="7" x="386.2766" y="296.4377"/></g><g><title>.CardsList</title><rect fill="#FFFFFF" height="21.9037" style="stroke:#181818;stroke-width:0.7;" width="7" x="479.9847" y="340.2451"/></g><g><title>.Ui</title><rect fill="#FFFFFF" height="9.8" style="stroke:#181818;stroke-width:0.7;" width="7" x="550.3418" y="384.0525"/></g><g class="participant-lifeline" data-entity-uid="part1" data-qualified-name="CardCollector" id="part1-lifeline"><g><title>.CardCollector</title><rect fill="#000000" fill-opacity="0.00000" height="420.9215" width="5.6" x="108.9901" y="27.0348"/><line style="stroke:#181818;stroke-width:0.35;stroke-dasharray:3.5,3.5;" x1="111.2737" x2="111.2737" y1="27.0348" y2="447.9562"/></g></g><g class="participant-lifeline" data-entity-uid="part2" data-qualified-name="Parser" id="part2-lifeline"><g><title>.Parser</title><rect fill="#000000" fill-opacity="0.00000" height="420.9215" width="5.6" x="188.6066" y="27.0348"/><line style="stroke:#181818;stroke-width:0.35;stroke-dasharray:3.5,3.5;" x1="191.4066" x2="191.4066" y1="27.0348" y2="447.9562"/></g></g><g class="participant-lifeline" data-entity-uid="part3" data-qualified-name="HistoryCommand" id="part3-lifeline"><g><title>.HistoryCommand</title><rect fill="#000000" fill-opacity="0.00000" height="347.8467" width="5.6" x="276.1162" y="100.1096"/><line style="stroke:#181818;stroke-width:0.35;stroke-dasharray:3.5,3.5;" x1="278.9066" x2="278.9066" y1="100.1096" y2="447.9562"/></g></g><g class="participant-lifeline" data-entity-uid="part4" data-qualified-name="CommandContext" id="part4-lifeline"><g><title>.CommandContext</title><rect fill="#000000" fill-opacity="0.00000" height="263.7045" width="5.6" x="386.9766" y="184.2518"/><line style="stroke:#181818;stroke-width:0.35;stroke-dasharray:3.5,3.5;" x1="389.5257" x2="389.5257" y1="184.2518" y2="447.9562"/></g></g><g class="participant-lifeline" data-entity-uid="part5" data-qualified-name="CardsList" id="part5-lifeline"><g><title>.CardsList</title><rect fill="#000000" fill-opacity="0.00000" height="420.9215" width="5.6" x="480.6847" y="27.0348"/><line style="stroke:#181818;stroke-width:0.35;stroke-dasharray:3.5,3.5;" x1="483.1275" x2="483.1275" y1="27.0348" y2="447.9562"/></g></g><g class="participant-lifeline" data-entity-uid="part6" data-qualified-name="Ui" id="part6-lifeline"><g><title>.Ui</title><rect fill="#000000" fill-opacity="0.00000" height="420.9215" width="5.6" x="551.0418" y="27.0348"/><line style="stroke:#181818;stroke-width:0.35;stroke-dasharray:3.5,3.5;" x1="553.8418" x2="553.8418" y1="27.0348" y2="447.9562"/></g></g><g class="participant participant-head" data-entity-uid="part1" data-qualified-name="CardCollector" id="part1-head"><rect fill="#E2E2F0" height="22.8348" rx="1.75" ry="1.75" style="stroke:#181818;stroke-width:0.35;" width="72.4329" x="75.5737" y="3.5"/><text fill="#000000" font-family="sans-serif" font-size="9.8" lengthAdjust="spacing" textLength="62.6329" x="80.4737" y="18.9752">:CardCollector</text></g><g class="participant participant-head" data-entity-uid="part2" data-qualified-name="Parser" id="part2-head"><rect fill="#4536FF" height="22.8348" rx="1.75" ry="1.75" style="stroke:#181818;stroke-width:0.35;" width="44.8" x="169.0066" y="3.5"/><text fill="#FFFFFF" font-family="sans-serif" font-size="9.8" lengthAdjust="spacing" textLength="31.5868" x="175.6132" y="18.9752">:Parser</text></g><g class="participant participant-head" data-entity-uid="part5" data-qualified-name="CardsList" id="part5-head"><rect fill="#009BA3" height="22.8348" rx="1.75" ry="1.75" style="stroke:#181818;stroke-width:0.35;" width="53.9144" x="456.5275" y="3.5"/><text fill="#FFFFFF" font-family="sans-serif" font-size="9.8" lengthAdjust="spacing" textLength="44.1144" x="461.4275" y="18.9752">:CardsList</text></g><g class="participant participant-head" data-entity-uid="part6" data-qualified-name="Ui" id="part6-head"><rect fill="#D16C00" height="22.8348" rx="1.75" ry="1.75" style="stroke:#181818;stroke-width:0.35;" width="44.8" x="531.4418" y="3.5"/><text fill="#FFFFFF" font-family="sans-serif" font-size="9.8" lengthAdjust="spacing" textLength="11.9772" x="547.8532" y="18.9752">:Ui</text></g><g><title>.CardCollector</title><rect fill="#FFFFFF" height="385.0178" style="stroke:#181818;stroke-width:0.7;" width="7" x="108.2901" y="50.3385"/></g><g><title>.Parser</title><rect fill="#FFFFFF" height="74.3422" style="stroke:#181818;stroke-width:0.7;" width="7" x="187.9066" y="72.2422"/></g><g><title>.HistoryCommand</title><rect fill="#FFFFFF" height="35.6385" style="stroke:#181818;stroke-width:0.7;" width="7" x="275.4162" y="89.0422"/></g><g><title>.HistoryCommand</title><rect fill="#FFFFFF" height="185.0297" style="stroke:#181818;stroke-width:0.7;" width="7" x="275.4162" y="230.7266"/></g><g><title>.CommandContext</title><rect fill="#FFFFFF" height="35.6385" style="stroke:#181818;stroke-width:0.7;" width="7" x="386.2766" y="173.1844"/></g><g><title>.CommandContext</title><rect fill="#FFFFFF" height="21.9037" style="stroke:#181818;stroke-width:0.7;" width="7" x="386.2766" y="252.6303"/></g><g><title>.CommandContext</title><rect fill="#FFFFFF" height="21.9037" style="stroke:#181818;stroke-width:0.7;" width="7" x="386.2766" y="296.4377"/></g><g><title>.CardsList</title><rect fill="#FFFFFF" height="21.9037" style="stroke:#181818;stroke-width:0.7;" width="7" x="479.9847" y="340.2451"/></g><g><title>.Ui</title><rect fill="#FFFFFF" height="9.8" style="stroke:#181818;stroke-width:0.7;" width="7" x="550.3418" y="384.0525"/></g><g class="message" data-entity-1="part1" data-entity-2="part1" id="msg1"><polygon fill="#181818" points="99.8901,47.5385,106.8901,50.3385,99.8901,53.1385,102.6901,50.3385" style="stroke:#181818;stroke-width:0.7;"/><line style="stroke:#181818;stroke-width:0.7;" x1="0" x2="104.0901" y1="50.3385" y2="50.3385"/><text fill="#000000" font-family="sans-serif" font-size="9.1" lengthAdjust="spacing" textLength="94.9901" x="6.65" y="46.6546">input "history all added"</text></g><g class="message" data-entity-1="part1" data-entity-2="part2" id="msg2"><polygon fill="#181818" points="179.5066,69.4422,186.5066,72.2422,179.5066,75.0422,182.3066,72.2422" style="stroke:#181818;stroke-width:0.7;"/><line style="stroke:#181818;stroke-width:0.7;" x1="115.2901" x2="183.7066" y1="72.2422" y2="72.2422"/><text fill="#000000" font-family="sans-serif" font-size="9.1" lengthAdjust="spacing" textLength="48.557" x="127.3198" y="68.5583">parse(input)</text></g><g class="message" data-entity-1="part2" data-entity-2="part3" id="msg3"><polygon fill="#181818" points="226.4066,79.2422,233.4066,82.0422,226.4066,84.8422,229.2066,82.0422" style="stroke:#181818;stroke-width:0.7;"/><line style="stroke:#181818;stroke-width:0.7;" x1="194.9066" x2="230.6066" y1="82.0422" y2="82.0422"/></g><rect fill="#BC00D1" height="22.8348" rx="1.75" ry="1.75" style="stroke:#181818;stroke-width:0.35;" width="88.2191" x="234.8066" y="77.8422"/><text fill="#FFFFFF" font-family="sans-serif" font-size="9.8" lengthAdjust="spacing" textLength="78.4191" x="239.7066" y="93.3174">:HistoryCommand</text><g class="message" data-entity-1="part3" data-entity-2="part2" id="msg5"><polygon fill="#181818" points="202.6066,121.8807,195.6066,124.6807,202.6066,127.4807,199.8066,124.6807" style="stroke:#181818;stroke-width:0.7;"/><line style="stroke:#181818;stroke-width:0.7;stroke-dasharray:1.4,1.4;" x1="198.4066" x2="278.2162" y1="124.6807" y2="124.6807"/><text fill="#000000" font-family="sans-serif" font-size="9.1" lengthAdjust="spacing" textLength="39.9547" x="216.934" y="120.9968">command</text></g><g class="message" data-entity-1="part2" data-entity-2="part1" id="msg6"><polygon fill="#181818" points="122.9901,143.7844,115.9901,146.5844,122.9901,149.3844,120.1901,146.5844" style="stroke:#181818;stroke-width:0.7;"/><line style="stroke:#181818;stroke-width:0.7;stroke-dasharray:1.4,1.4;" x1="118.7901" x2="190.7066" y1="146.5844" y2="146.5844"/><text fill="#000000" font-family="sans-serif" font-size="9.1" lengthAdjust="spacing" textLength="39.9547" x="133.371" y="142.9005">command</text></g><g class="message" data-entity-1="part1" data-entity-2="part4" id="msg8"><polygon fill="#181818" points="335.6257,163.3844,342.6257,166.1844,335.6257,168.9844,338.4257,166.1844" style="stroke:#181818;stroke-width:0.7;"/><line style="stroke:#181818;stroke-width:0.7;" x1="115.2901" x2="339.8257" y1="166.1844" y2="166.1844"/></g><rect fill="#D1006C" height="22.8348" rx="1.75" ry="1.75" style="stroke:#181818;stroke-width:0.35;" width="91.5018" x="344.0257" y="161.9844"/><text fill="#FFFFFF" font-family="sans-serif" font-size="9.8" lengthAdjust="spacing" textLength="81.7018" x="348.9257" y="177.4596">:CommandContext</text><g class="message" data-entity-1="part4" data-entity-2="part1" id="msg10"><polygon fill="#181818" points="122.9901,206.0229,115.9901,208.8229,122.9901,211.6229,120.1901,208.8229" style="stroke:#181818;stroke-width:0.7;"/><line style="stroke:#181818;stroke-width:0.7;stroke-dasharray:1.4,1.4;" x1="118.7901" x2="389.0766" y1="208.8229" y2="208.8229"/><text fill="#000000" font-family="sans-serif" font-size="9.1" lengthAdjust="spacing" textLength="29.3395" x="237.8636" y="205.139">context</text></g><g class="message" data-entity-1="part1" data-entity-2="part3" id="msg11"><polygon fill="#181818" points="267.0162,227.9266,274.0162,230.7266,267.0162,233.5266,269.8162,230.7266" style="stroke:#181818;stroke-width:0.7;"/><line style="stroke:#181818;stroke-width:0.7;" x1="115.2901" x2="271.2162" y1="230.7266" y2="230.7266"/><text fill="#000000" font-family="sans-serif" font-size="9.1" lengthAdjust="spacing" textLength="67.2725" x="161.7169" y="227.0427">execute(context)</text></g><g class="message" data-entity-1="part3" data-entity-2="part4" id="msg12"><polygon fill="#181818" points="377.8766,249.8303,384.8766,252.6303,377.8766,255.4303,380.6766,252.6303" style="stroke:#181818;stroke-width:0.7;"/><line style="stroke:#181818;stroke-width:0.7;" x1="282.4162" x2="382.0766" y1="252.6303" y2="252.6303"/><text fill="#000000" font-family="sans-serif" font-size="9.1" lengthAdjust="spacing" textLength="27.3044" x="320.6942" y="248.9464">getUi()</text></g><g class="message" data-entity-1="part4" data-entity-2="part3" id="msg13"><polygon fill="#181818" points="290.1162,271.734,283.1162,274.534,290.1162,277.334,287.3162,274.534" style="stroke:#181818;stroke-width:0.7;"/><line style="stroke:#181818;stroke-width:0.7;stroke-dasharray:1.4,1.4;" x1="285.9162" x2="389.0766" y1="274.534" y2="274.534"/><text fill="#000000" font-family="sans-serif" font-size="9.1" lengthAdjust="spacing" textLength="7.0827" x="332.555" y="270.8501">ui</text></g><g class="message" data-entity-1="part3" data-entity-2="part4" id="msg14"><polygon fill="#181818" points="377.8766,293.6377,384.8766,296.4377,377.8766,299.2377,380.6766,296.4377" style="stroke:#181818;stroke-width:0.7;"/><line style="stroke:#181818;stroke-width:0.7;" x1="282.4162" x2="382.0766" y1="296.4377" y2="296.4377"/><text fill="#000000" font-family="sans-serif" font-size="9.1" lengthAdjust="spacing" textLength="59.1722" x="304.7603" y="292.7538">getTargetList()</text></g><g class="message" data-entity-1="part4" data-entity-2="part3" id="msg15"><polygon fill="#181818" points="290.1162,315.5414,283.1162,318.3414,290.1162,321.1414,287.3162,318.3414" style="stroke:#181818;stroke-width:0.7;"/><line style="stroke:#181818;stroke-width:0.7;stroke-dasharray:1.4,1.4;" x1="285.9162" x2="389.0766" y1="318.3414" y2="318.3414"/><text fill="#000000" font-family="sans-serif" font-size="9.1" lengthAdjust="spacing" textLength="36.9243" x="317.6342" y="314.6575">inventory</text></g><g class="message" data-entity-1="part3" data-entity-2="part5" id="msg16"><polygon fill="#181818" points="471.5847,337.4451,478.5847,340.2451,471.5847,343.0451,474.3847,340.2451" style="stroke:#181818;stroke-width:0.7;"/><line style="stroke:#181818;stroke-width:0.7;" x1="282.4162" x2="475.7847" y1="340.2451" y2="340.2451"/><text fill="#000000" font-family="sans-serif" font-size="9.1" lengthAdjust="spacing" textLength="47.0241" x="357.6884" y="336.5612">getHistory()</text></g><g class="message" data-entity-1="part5" data-entity-2="part3" id="msg17"><polygon fill="#181818" points="290.1162,359.3488,283.1162,362.1488,290.1162,364.9488,287.3162,362.1488" style="stroke:#181818;stroke-width:0.7;"/><line style="stroke:#181818;stroke-width:0.7;stroke-dasharray:1.4,1.4;" x1="285.9162" x2="482.7847" y1="362.1488" y2="362.1488"/><text fill="#000000" font-family="sans-serif" font-size="9.1" lengthAdjust="spacing" textLength="26.8023" x="369.5492" y="358.4649">history</text></g><g class="message" data-entity-1="part3" data-entity-2="part6" id="msg18"><polygon fill="#181818" points="541.9418,381.2525,548.9418,384.0525,541.9418,386.8525,544.7418,384.0525" style="stroke:#181818;stroke-width:0.7;"/><line style="stroke:#181818;stroke-width:0.7;" x1="282.4162" x2="546.1418" y1="384.0525" y2="384.0525"/><text fill="#000000" font-family="sans-serif" font-size="9.1" lengthAdjust="spacing" textLength="59.661" x="386.5485" y="380.3687">printHistory(...)</text></g><g class="message" data-entity-1="part6" data-entity-2="part3" id="msg19"><polygon fill="#181818" points="290.1162,391.0525,283.1162,393.8525,290.1162,396.6525,287.3162,393.8525" style="stroke:#181818;stroke-width:0.7;"/><line style="stroke:#181818;stroke-width:0.7;stroke-dasharray:1.4,1.4;" x1="285.9162" x2="553.1418" y1="393.8525" y2="393.8525"/></g><g class="message" data-entity-1="part3" data-entity-2="part1" id="msg20"><polygon fill="#181818" points="122.9901,412.9562,115.9901,415.7562,122.9901,418.5562,120.1901,415.7562" style="stroke:#181818;stroke-width:0.7;"/><line style="stroke:#181818;stroke-width:0.7;stroke-dasharray:1.4,1.4;" x1="118.7901" x2="278.2162" y1="415.7562" y2="415.7562"/><text fill="#000000" font-family="sans-serif" font-size="9.1" lengthAdjust="spacing" textLength="65.7484" x="164.229" y="412.0724">commandResult</text></g><g class="message" data-entity-1="part1" data-entity-2="part1" id="msg22"><polygon fill="#181818" points="7.7,432.5562,0.7,435.3562,7.7,438.1562,4.9,435.3562" style="stroke:#181818;stroke-width:0.7;"/><line style="stroke:#181818;stroke-width:0.7;stroke-dasharray:1.4,1.4;" x1="3.5" x2="111.0901" y1="435.3562" y2="435.3562"/></g><line style="stroke:#A80036;stroke-width:1.4;" x1="383.4766" x2="396.0766" y1="429.0562" y2="441.6562"/><line style="stroke:#A80036;stroke-width:1.4;" x1="383.4766" x2="396.0766" y1="441.6562" y2="429.0562"/><line style="stroke:#A80036;stroke-width:1.4;" x1="272.6162" x2="285.2162" y1="429.0562" y2="441.6562"/><line style="stroke:#A80036;stroke-width:1.4;" x1="272.6162" x2="285.2162" y1="441.6562" y2="429.0562"/><?plantuml-src fLHHYzim37xthz3wqXRM_e0o1YLtR0VNQqaRjZ76OH9jDRXES9pRzT_FYPsaLjBUnfxYIFhqVP8ilnCgbLM6i3TdYSkYEad62gwDI4N1bO79Ak8wYt8fCJMvdW0l8R2Gw1tN9RemTuJTEjxVny_Hzd4RF-_YXyqw_aOvFelIfZf7-Ud4LTQWGnD4syrc_NH7qX2bBZRAbS5NuwG6fZPBj7qwt7yzt4vcYomVhOYkvEOFedLyjx-9J4G3IGGa3xJinSUmUx02eOhAmewkNk1I0iyop2QCyTI85swGT3pCO5FwJg-Wg0-p9kEyHpitOwd6-ZViBFDWcuOuEZonayaiBWMaFYR3Q-YERwGL8sYldPJy_IXiYzIFZfgnwHS4hX6oN27y5kO8veYk8VezI3Gb-FfhksUoNtSnwZE-Obg5_cdRi_0U3IT0_FtW22wyZkCzSA5z3zYGZenWrMgVUVJywl3Oz1CQUpUdWp7I8cpMNsWICPl_Ipa3PPMu72T9uDGOhYqJI0lzMrc71b8lv7_A4-e5LMrwKsMxe3_j2BhdO5HlzrOqKdr0eBEDO7tig3hF6MZhi6o4En7s4T12TQpBvVA2E16CsNTfo7N9K0UDxFYLPOsnhAIviV1lh-w7nOAySAJUtc4zfT7vcOweDHFkFm00?></g></svg>