<svg xmlns="http://www.w3.org/2000/svg" xmlns:xlink="http://www.w3.org/1999/xlink" contentStyleType="text/css" data-diagram-type="SEQUENCE" height="387.1px" preserveAspectRatio="none" style="width:415px;height:387px;background:#FFFFFF;" version="1.1" viewBox="0 0 415 387" width="415.1px" zoomAndPan="magnify"><defs/><g><g><title>.Parser</title><rect fill="#FFFFFF" height="109.9807" style="stroke:#181818;stroke-width:0.7;" width="7" x="165.0694" y="45.2348"/></g><g><title>.DeleteCommand</title><rect fill="#FFFFFF" height="35.6385" style="stroke:#181818;stroke-width:0.7;" width="7" x="251.4976" y="97.6732"/></g><g><title>.DeleteCommand</title><rect fill="#FFFFFF" height="163.6018" style="stroke:#181818;stroke-width:0.7;" width="7" x="251.4976" y="196.7191"/></g><g><title>.Ui</title><rect fill="#FFFFFF" height="9.8" style="stroke:#181818;stroke-width:0.7;" width="7" x="370.4046" y="237.0266"/></g><g><title>.Ui</title><rect fill="#FFFFFF" height="9.8" style="stroke:#181818;stroke-width:0.7;" width="7" x="370.4046" y="280.3719"/></g><g><title>.Ui</title><rect fill="#FFFFFF" height="9.8" style="stroke:#181818;stroke-width:0.7;" width="7" x="370.4046" y="323.7172"/></g><rect fill="#FAFAFA" height="131.898" style="stroke:#000000;stroke-width:1.05;" width="212.3352" x="197.9694" y="207.2191"/><rect fill="#FAFAFA" height="43.3453" style="stroke:none;stroke-width:0.7;" width="212.3352" x="197.9694" y="252.4266"/><rect fill="#FAFAFA" height="43.3453" style="stroke:none;stroke-width:0.7;" width="212.3352" x="197.9694" y="295.7719"/><g><title>.CardCollector</title><rect fill="#000000" fill-opacity="0.00000" height="355.6861" width="5.6" x="43.9165" y="27.0348"/><line style="stroke:#181818;stroke-width:0.35;stroke-dasharray:3.5,3.5;" x1="46.2" x2="46.2" y1="27.0348" y2="382.7209"/></g><g><title>.Parser</title><rect fill="#000000" fill-opacity="0.00000" height="326.4187" width="5.6" x="165.7694" y="56.3021"/><line style="stroke:#181818;stroke-width:0.35;stroke-dasharray:3.5,3.5;" x1="168.5694" x2="168.5694" y1="56.3021" y2="382.7209"/></g><g><title>.DeleteCommand</title><rect fill="#000000" fill-opacity="0.00000" height="273.9803" width="5.6" x="252.1976" y="108.7406"/><line style="stroke:#181818;stroke-width:0.35;stroke-dasharray:3.5,3.5;" x1="254.6694" x2="254.6694" y1="108.7406" y2="382.7209"/></g><g><title>.Ui</title><rect fill="#000000" fill-opacity="0.00000" height="355.6861" width="5.6" x="371.1046" y="27.0348"/><line style="stroke:#181818;stroke-width:0.35;stroke-dasharray:3.5,3.5;" x1="373.9046" x2="373.9046" y1="27.0348" y2="382.7209"/></g><g class="participant participant-head" data-participant="CardCollector"><rect fill="#009BA3" height="22.8348" rx="1.75" ry="1.75" style="stroke:#181818;stroke-width:0.35;" width="72.4329" x="10.5" y="3.5"/><text fill="#FFFFFF" font-family="sans-serif" font-size="9.8" lengthAdjust="spacing" textLength="62.6329" x="15.4" y="18.9752">:CardCollector</text></g><g class="participant participant-head" data-participant="Ui"><rect fill="#D16C00" height="22.8348" rx="1.75" ry="1.75" style="stroke:#181818;stroke-width:0.35;" width="44.8" x="351.5046" y="3.5"/><text fill="#FFFFFF" font-family="sans-serif" font-size="9.8" lengthAdjust="spacing" textLength="11.9772" x="367.916" y="18.9752">:Ui</text></g><g><title>.Parser</title><rect fill="#FFFFFF" height="109.9807" style="stroke:#181818;stroke-width:0.7;" width="7" x="165.0694" y="45.2348"/></g><g><title>.DeleteCommand</title><rect fill="#FFFFFF" height="35.6385" style="stroke:#181818;stroke-width:0.7;" width="7" x="251.4976" y="97.6732"/></g><g><title>.DeleteCommand</title><rect fill="#FFFFFF" height="163.6018" style="stroke:#181818;stroke-width:0.7;" width="7" x="251.4976" y="196.7191"/></g><g><title>.Ui</title><rect fill="#FFFFFF" height="9.8" style="stroke:#181818;stroke-width:0.7;" width="7" x="370.4046" y="237.0266"/></g><g><title>.Ui</title><rect fill="#FFFFFF" height="9.8" style="stroke:#181818;stroke-width:0.7;" width="7" x="370.4046" y="280.3719"/></g><g><title>.Ui</title><rect fill="#FFFFFF" height="9.8" style="stroke:#181818;stroke-width:0.7;" width="7" x="370.4046" y="323.7172"/></g><g class="message" data-participant-1="CardCollector" data-participant-2="Parser"><polygon fill="#181818" points="137.7694,35.4348,144.7694,38.2348,137.7694,41.0348,140.5694,38.2348" style="stroke:#181818;stroke-width:0.7;"/><line style="stroke:#181818;stroke-width:0.7;" x1="46.7165" x2="141.9694" y1="38.2348" y2="38.2348"/></g><rect fill="#4536FF" height="22.8348" rx="1.75" ry="1.75" style="stroke:#181818;stroke-width:0.35;" width="44.8" x="146.1694" y="34.0348"/><text fill="#FFFFFF" font-family="sans-serif" font-size="9.8" lengthAdjust="spacing" textLength="31.5868" x="152.776" y="49.51">:Parser</text><g class="message" data-participant-1="CardCollector" data-participant-2="Parser"><polygon fill="#181818" points="156.6694,78.0732,163.6694,80.8732,156.6694,83.6732,159.4694,80.8732" style="stroke:#181818;stroke-width:0.7;"/><line style="stroke:#181818;stroke-width:0.7;" x1="46.7165" x2="160.8694" y1="80.8732" y2="80.8732"/><text fill="#000000" font-family="sans-serif" font-size="9.1" lengthAdjust="spacing" textLength="101.553" x="55.1165" y="77.1894">parse("history added all")</text></g><g class="message" data-participant-1="Parser" data-participant-2="DeleteCommand"><polygon fill="#181818" points="203.5694,87.8732,210.5694,90.6732,203.5694,93.4732,206.3694,90.6732" style="stroke:#181818;stroke-width:0.7;"/><line style="stroke:#181818;stroke-width:0.7;" x1="172.0694" x2="207.7694" y1="90.6732" y2="90.6732"/></g><rect fill="#BC00D1" height="22.8348" rx="1.75" ry="1.75" style="stroke:#181818;stroke-width:0.35;" width="86.0562" x="211.9694" y="86.4732"/><text fill="#FFFFFF" font-family="sans-serif" font-size="9.8" lengthAdjust="spacing" textLength="76.2562" x="216.8694" y="101.9484">:DeleteCommand</text><g class="message" data-participant-1="DeleteCommand" data-participant-2="Parser"><polygon fill="#181818" points="179.7694,130.5117,172.7694,133.3117,179.7694,136.1117,176.9694,133.3117" style="stroke:#181818;stroke-width:0.7;"/><line style="stroke:#181818;stroke-width:0.7;stroke-dasharray:1.4,1.4;" x1="175.5694" x2="254.2976" y1="133.3117" y2="133.3117"/><text fill="#000000" font-family="sans-serif" font-size="9.1" lengthAdjust="spacing" textLength="39.9547" x="193.5562" y="129.6278">command</text></g><g class="message" data-participant-1="Parser" data-participant-2="CardCollector"><polygon fill="#181818" points="54.4165,152.4154,47.4165,155.2154,54.4165,158.0154,51.6165,155.2154" style="stroke:#181818;stroke-width:0.7;"/><line style="stroke:#181818;stroke-width:0.7;stroke-dasharray:1.4,1.4;" x1="50.2165" x2="167.8694" y1="155.2154" y2="155.2154"/><text fill="#000000" font-family="sans-serif" font-size="9.1" lengthAdjust="spacing" textLength="39.9547" x="87.6656" y="151.5315">command</text></g><line style="stroke:#A80036;stroke-width:1.4;" x1="162.2694" x2="174.8694" y1="158.7154" y2="171.3154"/><line style="stroke:#A80036;stroke-width:1.4;" x1="162.2694" x2="174.8694" y1="171.3154" y2="158.7154"/><g class="message" data-participant-1="CardCollector" data-participant-2="DeleteCommand"><polygon fill="#181818" points="243.0976,193.9191,250.0976,196.7191,243.0976,199.5191,245.8976,196.7191" style="stroke:#181818;stroke-width:0.7;"/><line style="stroke:#181818;stroke-width:0.7;" x1="46.7165" x2="247.2976" y1="196.7191" y2="196.7191"/><text fill="#000000" font-family="sans-serif" font-size="9.1" lengthAdjust="spacing" textLength="37.933" x="130.1405" y="193.0353">execute()</text></g><path d="M197.9694,207.2191 L240.0891,207.2191 L240.0891,213.7229 L233.0891,220.7229 L197.9694,220.7229 L197.9694,207.2191" fill="#EEEEEE" style="stroke:#000000;stroke-width:1.05;"/><rect fill="none" height="131.898" style="stroke:#000000;stroke-width:1.05;" width="212.3352" x="197.9694" y="207.2191"/><text fill="#000000" font-family="sans-serif" font-size="9.1" font-weight="bold" lengthAdjust="spacing" textLength="10.6196" x="208.4694" y="217.739">alt</text><text fill="#000000" font-family="sans-serif" font-size="7.7" font-weight="bold" lengthAdjust="spacing" textLength="96.6899" x="250.5891" y="216.9282">[CardHistoryType.ADDED]</text><g class="message" data-participant-1="DeleteCommand" data-participant-2="Ui"><polygon fill="#181818" points="362.0046,234.2266,369.0046,237.0266,362.0046,239.8266,364.8046,237.0266" style="stroke:#181818;stroke-width:0.7;"/><line style="stroke:#181818;stroke-width:0.7;" x1="258.4976" x2="366.2046" y1="237.0266" y2="237.0266"/><text fill="#000000" font-family="sans-serif" font-size="9.1" lengthAdjust="spacing" textLength="85.9746" x="271.4638" y="233.3427">printAddedHistory(...)</text></g><g class="message" data-participant-1="Ui" data-participant-2="DeleteCommand"><polygon fill="#181818" points="266.1976,244.0266,259.1976,246.8266,266.1976,249.6266,263.3976,246.8266" style="stroke:#181818;stroke-width:0.7;"/><line style="stroke:#181818;stroke-width:0.7;stroke-dasharray:1.4,1.4;" x1="261.9976" x2="373.2046" y1="246.8266" y2="246.8266"/></g><line style="stroke:#000000;stroke-width:0.7;stroke-dasharray:1.4,1.4;" x1="197.9694" x2="410.3046" y1="253.1266" y2="253.1266"/><text fill="#000000" font-family="sans-serif" font-size="7.7" font-weight="bold" lengthAdjust="spacing" textLength="106.9541" x="201.4694" y="261.4356">[CardHistoryType.MODIFIED]</text><g class="message" data-participant-1="DeleteCommand" data-participant-2="Ui"><polygon fill="#181818" points="362.0046,277.5719,369.0046,280.3719,362.0046,283.1719,364.8046,280.3719" style="stroke:#181818;stroke-width:0.7;"/><line style="stroke:#181818;stroke-width:0.7;" x1="258.4976" x2="366.2046" y1="280.3719" y2="280.3719"/><text fill="#000000" font-family="sans-serif" font-size="9.1" lengthAdjust="spacing" textLength="94.057" x="267.4226" y="276.688">printModifiedHistory(...)</text></g><g class="message" data-participant-1="Ui" data-participant-2="DeleteCommand"><polygon fill="#181818" points="266.1976,287.3719,259.1976,290.1719,266.1976,292.9719,263.3976,290.1719" style="stroke:#181818;stroke-width:0.7;"/><line style="stroke:#181818;stroke-width:0.7;stroke-dasharray:1.4,1.4;" x1="261.9976" x2="373.2046" y1="290.1719" y2="290.1719"/></g><line style="stroke:#000000;stroke-width:0.7;stroke-dasharray:1.4,1.4;" x1="197.9694" x2="410.3046" y1="296.4719" y2="296.4719"/><text fill="#000000" font-family="sans-serif" font-size="7.7" font-weight="bold" lengthAdjust="spacing" textLength="103.9726" x="201.4694" y="304.781">[CardHistoryType.Removed]</text><g class="message" data-participant-1="DeleteCommand" data-participant-2="Ui"><polygon fill="#181818" points="362.0046,320.9172,369.0046,323.7172,362.0046,326.5172,364.8046,323.7172" style="stroke:#181818;stroke-width:0.7;"/><line style="stroke:#181818;stroke-width:0.7;" x1="258.4976" x2="366.2046" y1="323.7172" y2="323.7172"/><text fill="#000000" font-family="sans-serif" font-size="9.1" lengthAdjust="spacing" textLength="98.607" x="265.1476" y="320.0333">printRemovedHistory(...)</text></g><g class="message" data-participant-1="Ui" data-participant-2="DeleteCommand"><polygon fill="#181818" points="266.1976,330.7172,259.1976,333.5172,266.1976,336.3172,263.3976,333.5172" style="stroke:#181818;stroke-width:0.7;"/><line style="stroke:#181818;stroke-width:0.7;stroke-dasharray:1.4,1.4;" x1="261.9976" x2="373.2046" y1="333.5172" y2="333.5172"/></g><g class="message" data-participant-1="DeleteCommand" data-participant-2="CardCollector"><polygon fill="#181818" points="54.4165,357.5209,47.4165,360.3209,54.4165,363.1209,51.6165,360.3209" style="stroke:#181818;stroke-width:0.7;"/><line style="stroke:#181818;stroke-width:0.7;stroke-dasharray:1.4,1.4;" x1="50.2165" x2="254.2976" y1="360.3209" y2="360.3209"/><text fill="#000000" font-family="sans-serif" font-size="9.1" lengthAdjust="spacing" textLength="65.7484" x="117.9828" y="356.637">commandResult</text></g><line style="stroke:#A80036;stroke-width:1.4;" x1="248.6976" x2="261.2976" y1="363.8209" y2="376.4209"/><line style="stroke:#A80036;stroke-width:1.4;" x1="248.6976" x2="261.2976" y1="376.4209" y2="363.8209"/><!--SRC=[jLBRQeD047tVhvZQXoJG-04-14HJ6eWrc4WffPJ5dP25ZSgwflNlkrugtPZRGwiWw-mvCsVEp1rF4r4oXBMg1DfvkHU4v5Ggdl2SfWeinwEIUPaGcAXCMa0BC2BWkP7lXSlbtDk4qOS-wUygMWHkz7gKQKLbWMsAzWWhDrhFBvDy5AZGo_PxchA6QqJ02uF0VVOlveXvGumvn8iZ84aaKeMT86AsDfrrSOVGHF73TI0uaDU7iRNZXRwfW3A63AWGrgGlPdH0EgREOSRxacROR7_wktJIGHYUuVQrDCliu2JvTAzlEwvxIj_xoffIA9bLD-F9w0M1IWIMfGYVNEr0xR1rJZw0Lbm0Vc5IQWtrHITjD7JTDCFvOOqdvzmZL2YutzBwRInuQkUqgNAqNT-V-mJqSsJoJE-EdgpagNBhUNQaiMtRamRVLujvywzNRJeOQ7tnorqDHL7WG4KG-el7nLKXGSRubl-pbWZtsG7P5IaTwi-Kr7CQhlcPXOsmA8Kwl_CtRwz1-mO0]--></g></svg>