<?plantuml 1.2026.2?><svg xmlns="http://www.w3.org/2000/svg" xmlns:xlink="http://www.w3.org/1999/xlink" contentStyleType="text/css" data-diagram-type="CLASS" height="200.9px" preserveAspectRatio="none" style="width:472px;height:200px;background:#FFFFFF;" version="1.1" viewBox="0 0 472 200" width="472.5px" zoomAndPan="magnify"><defs/><g><!--cluster parser--><g class="cluster" data-qualified-name="parser" data-source-line="11" id="ent0005"><rect fill="#FFFFFF" height="127.4" rx="1.75" ry="1.75" style="stroke:#000000;stroke-width:0.7;" width="198.8" x="186.2" y="4.9"/><text fill="#000000" font-family="sans-serif" font-size="11.2" font-weight="bold" lengthAdjust="spacing" textLength="34.2453" x="268.4773" y="18.3859">parser</text></g><!--class Parser--><g class="entity" data-qualified-name="parser.Parser" data-source-line="12" id="ent0006"><rect fill="#4536FF" height="19.5125" rx="1.75" ry="1.75" style="stroke:#181818;stroke-width:0.7;" width="37.1875" x="266.35" y="101.5"/><text fill="#FFFFFF" font-family="Arial" font-size="11.2" lengthAdjust="spacing" textLength="32.9875" x="268.45" y="115.1391">Parser</text></g><!--class SplitTokenizer--><g class="entity" data-qualified-name="parser.SplitTokenizer" data-source-line="13" id="ent0007"><rect fill="#4536FF" height="19.5125" rx="1.75" ry="1.75" style="stroke:#181818;stroke-width:0.7;" width="75.1625" x="197.75" y="32.9"/><text fill="#FFFFFF" font-family="Arial" font-size="11.2" lengthAdjust="spacing" textLength="70.9625" x="199.85" y="46.5391">SplitTokenizer</text></g><!--class Disambiguator--><g class="entity" data-qualified-name="parser.Disambiguator" data-source-line="14" id="ent0008"><rect fill="#4536FF" height="19.5125" rx="1.75" ry="1.75" style="stroke:#181818;stroke-width:0.7;" width="76.4094" x="297.15" y="32.9"/><text fill="#FFFFFF" font-family="Arial" font-size="11.2" lengthAdjust="spacing" textLength="72.2094" x="299.25" y="46.5391">Disambiguator</text></g><!--class NumericFilter--><g class="entity" data-qualified-name="NumericFilter" data-source-line="7" id="ent0002"><rect fill="#F1F1F1" height="19.5125" rx="1.75" ry="1.75" style="stroke:#181818;stroke-width:0.7;" width="70.782" x="174.65" y="171.15"/><text fill="#000000" font-family="Arial" font-size="11.2" lengthAdjust="spacing" textLength="66.582" x="176.75" y="184.7891">NumericFilter</text></g><!--class CardHistoryType--><g class="entity" data-qualified-name="CardHistoryType" data-source-line="8" id="ent0003"><rect fill="#F1F1F1" height="19.5125" rx="1.75" ry="1.75" style="stroke:#181818;stroke-width:0.7;" width="88.2219" x="270.2" y="171.15"/><text fill="#000000" font-family="Arial" font-size="11.2" lengthAdjust="spacing" textLength="84.0219" x="272.3" y="184.7891">CardHistoryType</text></g><!--class CardSortCriteria--><g class="entity" data-qualified-name="CardSortCriteria" data-source-line="9" id="ent0004"><rect fill="#F1F1F1" height="19.5125" rx="1.75" ry="1.75" style="stroke:#181818;stroke-width:0.7;" width="85.1102" x="382.9" y="171.15"/><text fill="#000000" font-family="Arial" font-size="11.2" lengthAdjust="spacing" textLength="80.9102" x="385" y="184.7891">CardSortCriteria</text></g><!--class XYZCommand--><g class="entity" data-qualified-name="XYZCommand" data-source-line="17" id="ent0009"><rect fill="#BC00D1" height="19.5125" rx="1.75" ry="1.75" style="stroke:#181818;stroke-width:0.7;" width="77.6453" x="68.25" y="101.5"/><text fill="#FFFFFF" font-family="Arial" font-size="11.2" lengthAdjust="spacing" textLength="73.4453" x="70.35" y="115.1391">XYZCommand</text></g><!--class {abstract}\nCommand--><g class="entity" data-qualified-name=".abstract..nCommand" data-source-line="18" id="ent0010"><rect fill="#BC00D1" height="32.025" rx="1.75" ry="1.75" style="stroke:#181818;stroke-width:0.7;" width="55.8633" x="79.1" y="26.6"/><text fill="#FFFFFF" font-family="Arial" font-size="11.2" lengthAdjust="spacing" textLength="47.3211" x="83.3711" y="40.2391">{abstract}</text><text fill="#FFFFFF" font-family="Arial" font-size="11.2" lengthAdjust="spacing" textLength="51.6633" x="81.2" y="52.7516">Command</text></g><g class="entity" data-qualified-name="GMN15" data-source-line="22" id="ent0016"><path d="M4.2,165.2 L4.2,196.4074 A0,0 0 0 0 4.2,196.4074 L149.6414,196.4074 A0,0 0 0 0 149.6414,196.4074 L149.6414,172.2 L142.6414,165.2 L86.436,165.2 L103.04,121.205 L80.836,165.2 L4.2,165.2 A0,0 0 0 0 4.2,165.2" fill="#FEFFDD" style="stroke:#181818;stroke-width:0.35;"/><path d="M142.6414,165.2 L142.6414,172.2 L149.6414,172.2 L142.6414,165.2" fill="#FEFFDD" style="stroke:#181818;stroke-width:0.35;"/><text fill="#000000" font-family="sans-serif" font-size="9.1" lengthAdjust="spacing" textLength="130.7414" x="8.4" y="178.5198">XYZCommand = AddCommand,</text><text fill="#000000" font-family="sans-serif" font-size="9.1" lengthAdjust="spacing" textLength="77.3811" x="36.3443" y="190.6235">EditCommand, etc.</text></g><!--reverse link SplitTokenizer to Parser--><g class="link" data-entity-1="ent0007" data-entity-2="ent0006" data-link-type="dependency" data-source-line="19" id="lnk12"><path codeLine="19" d="M244.6072,56.1213 C254.1062,68.9593 268.583,88.536 278.047,101.332" fill="none" id="SplitTokenizer-backto-Parser" style="stroke:#181818;stroke-width:0.7;stroke-dasharray:4.9,4.9;"/><polygon fill="#181818" points="242.109,52.745,243.6054,59.4748,244.1908,55.5586,248.1071,56.144,242.109,52.745" style="stroke:#181818;stroke-width:0.7;"/></g><!--reverse link Disambiguator to Parser--><g class="link" data-entity-1="ent0008" data-entity-2="ent0006" data-link-type="dependency" data-source-line="20" id="lnk14"><path codeLine="20" d="M325.7724,56.1046 C316.1404,68.9426 301.448,88.536 291.851,101.332" fill="none" id="Disambiguator-backto-Parser" style="stroke:#181818;stroke-width:0.7;stroke-dasharray:4.9,4.9;"/><polygon fill="#181818" points="328.293,52.745,322.2724,56.1039,326.1925,55.5446,326.7518,59.4647,328.293,52.745" style="stroke:#181818;stroke-width:0.7;"/></g><!--reverse link XYZCommand to Parser--><g class="link" data-entity-1="ent0009" data-entity-2="ent0006" data-link-type="dependency" data-source-line="24" id="lnk19"><path codeLine="24" d="M150.318,111.3 C187.53,111.3 237.776,111.3 266.14,111.3" fill="none" id="XYZCommand-backto-Parser" style="stroke:#181818;stroke-width:0.7;stroke-dasharray:4.9,4.9;"/><polygon fill="#181818" points="146.118,111.3,152.418,114.1,149.618,111.3,152.418,108.5,146.118,111.3" style="stroke:#181818;stroke-width:0.7;"/><text fill="#000000" font-family="sans-serif" font-size="9.1" lengthAdjust="spacing" textLength="35.4136" x="188.65" y="106.4198">&#171;create&#187;</text></g><!--link Parser to NumericFilter--><g class="link" data-entity-1="ent0006" data-entity-2="ent0002" data-link-type="dependency" data-source-line="26" id="lnk20"><path codeLine="26" d="M274.799,121.205 C260.505,134.232 237.6255,155.0772 223.2825,168.1462" fill="none" id="Parser-to-NumericFilter" style="stroke:#181818;stroke-width:0.7;stroke-dasharray:4.9,4.9;"/><polygon fill="#181818" points="220.178,170.975,226.7206,168.8015,222.7651,168.6177,222.9489,164.6622,220.178,170.975" style="stroke:#181818;stroke-width:0.7;"/></g><!--link Parser to CardSortCriteria--><g class="link" data-entity-1="ent0006" data-entity-2="ent0004" data-link-type="dependency" data-source-line="27" id="lnk21"><path codeLine="27" d="M303.583,121.065 C330.498,134.12 376.1041,156.241 403.0611,169.317" fill="none" id="Parser-to-CardSortCriteria" style="stroke:#181818;stroke-width:0.7;stroke-dasharray:4.9,4.9;"/><polygon fill="#181818" points="406.84,171.15,402.3937,165.8812,403.6909,169.6225,399.9496,170.9197,406.84,171.15" style="stroke:#181818;stroke-width:0.7;"/></g><!--link Parser to CardHistoryType--><g class="link" data-entity-1="ent0006" data-entity-2="ent0003" data-link-type="dependency" data-source-line="28" id="lnk22"><path codeLine="28" d="M288.862,121.205 C294.476,134.232 303.0138,154.0485 308.6418,167.1175" fill="none" id="Parser-to-CardHistoryType" style="stroke:#181818;stroke-width:0.7;stroke-dasharray:4.9,4.9;"/><polygon fill="#181818" points="310.303,170.975,310.3829,164.0813,308.9187,167.7604,305.2395,166.2962,310.303,170.975" style="stroke:#181818;stroke-width:0.7;"/></g><!--reverse link {abstract}\nCommand to XYZCommand--><g class="link" data-entity-1="ent0010" data-entity-2="ent0009" data-link-type="extension" data-source-line="31" id="lnk23"><path codeLine="31" d="M107.1,71.589 C107.1,84.693 107.1,90.384 107.1,101.311" fill="none" id="{abstract}\nCommand-backto-XYZCommand" style="stroke:#181818;stroke-width:0.7;"/><polygon fill="none" points="107.1,58.989,102.9,71.589,111.3,71.589,107.1,58.989" style="stroke:#181818;stroke-width:0.7;"/></g><?plantuml-src XP7RRi8m38RlynGUrwCFW1XILPWsQHpKSZ4cf2bj3Ol8IObxqJ7UVPaeMs1Covtjp_b_spT2LxAf4Gfg9IQsKP8nlnFQSiSLIA6HMejWZMo_0iRUHA1HMMf1eIhHUSOgoRs7MQFGYUfUI4BNvJBkwWVXoRXs6Vw9ieLnb3aHKC4PixpQyMtGuSwZWps3y8xmufXQf7anoL-p-TCyVrtaZzCqNqLKOQMWfTcX5k__qsFXkIh5jk71sNNuS1hhUVMI6QMuhY6RJwVfR7n17h7UdfUU7A_eiDPTG--FZcwafB79wCBvUUtC9sFQ449fY8m2iucS3MANTv3MTHVShZLCQa6d492gX7sBIDnGa8cQ1p0SLWuvuMZqmmNc_BfHuTSnBshn-HcxlgRXHxyVkVW4?></g></svg>