<?plantuml 1.2026.2?><svg xmlns="http://www.w3.org/2000/svg" xmlns:xlink="http://www.w3.org/1999/xlink" contentStyleType="text/css" data-diagram-type="CLASS" height="229.6px" preserveAspectRatio="none" style="width:608px;height:229px;background:#FFFFFF;" version="1.1" viewBox="0 0 608 229" width="608px" zoomAndPan="magnify"><defs/><g><!--cluster parser--><g class="cluster" data-qualified-name="parser" data-source-line="12" id="ent0006"><rect fill="#FFFFFF" height="145.6" rx="2" ry="2" style="stroke:#000000;stroke-width:0.8;" width="227.2" x="246.4" y="5.6"/><text fill="#000000" font-family="sans-serif" font-size="12.8" font-weight="bold" lengthAdjust="spacing" textLength="39.1375" x="340.4313" y="21.0125">parser</text></g><!--class Parser--><g class="entity" data-qualified-name="parser.Parser" data-source-line="13" id="ent0007"><rect fill="#4536FF" height="22.3" rx="2" ry="2" style="stroke:#181818;stroke-width:0.8;" width="42.5" x="338" y="116"/><text fill="#FFFFFF" font-family="Arial" font-size="12.8" lengthAdjust="spacing" textLength="37.7" x="340.4" y="131.5875">Parser</text></g><!--class SplitTokenizer--><g class="entity" data-qualified-name="parser.SplitTokenizer" data-source-line="14" id="ent0008"><rect fill="#4536FF" height="22.3" rx="2" ry="2" style="stroke:#181818;stroke-width:0.8;" width="85.9" x="259.6" y="37.6"/><text fill="#FFFFFF" font-family="Arial" font-size="12.8" lengthAdjust="spacing" textLength="81.1" x="262" y="53.1875">SplitTokenizer</text></g><!--class Disambiguator--><g class="entity" data-qualified-name="parser.Disambiguator" data-source-line="15" id="ent0009"><rect fill="#4536FF" height="22.3" rx="2" ry="2" style="stroke:#181818;stroke-width:0.8;" width="87.325" x="373.2" y="37.6"/><text fill="#FFFFFF" font-family="Arial" font-size="12.8" lengthAdjust="spacing" textLength="82.525" x="375.6" y="53.1875">Disambiguator</text></g><!--class NumericFilter--><g class="entity" data-qualified-name="NumericFilter" data-source-line="7" id="ent0002"><rect fill="#F1F1F1" height="22.3" rx="2" ry="2" style="stroke:#181818;stroke-width:0.8;" width="80.8938" x="199.6" y="195.6"/><text fill="#000000" font-family="Arial" font-size="12.8" lengthAdjust="spacing" textLength="76.0938" x="202" y="211.1875">NumericFilter</text></g><!--class CardHistoryType--><g class="entity" data-qualified-name="CardHistoryType" data-source-line="8" id="ent0003"><rect fill="#F1F1F1" height="22.3" rx="2" ry="2" style="stroke:#181818;stroke-width:0.8;" width="100.825" x="308.8" y="195.6"/><text fill="#000000" font-family="Arial" font-size="12.8" lengthAdjust="spacing" textLength="96.025" x="311.2" y="211.1875">CardHistoryType</text></g><!--class CardSortCriteria--><g class="entity" data-qualified-name="CardSortCriteria" data-source-line="9" id="ent0004"><rect fill="#F1F1F1" height="22.3" rx="2" ry="2" style="stroke:#181818;stroke-width:0.8;" width="97.2688" x="437.6" y="195.6"/><text fill="#000000" font-family="Arial" font-size="12.8" lengthAdjust="spacing" textLength="92.4688" x="440" y="211.1875">CardSortCriteria</text></g><!--class Box--><g class="entity" data-qualified-name="Box" data-source-line="10" id="ent0005"><rect fill="#F1F1F1" height="22.3" rx="2" ry="2" style="stroke:#181818;stroke-width:0.8;" width="40" x="563.2" y="195.6"/><text fill="#000000" font-family="Arial" font-size="12.8" lengthAdjust="spacing" textLength="22.0563" x="572.1719" y="211.1875">Box</text></g><!--class XYZCommand--><g class="entity" data-qualified-name="XYZCommand" data-source-line="18" id="ent0010"><rect fill="#BC00D1" height="22.3" rx="2" ry="2" style="stroke:#181818;stroke-width:0.8;" width="88.7375" x="111.6" y="116"/><text fill="#FFFFFF" font-family="Arial" font-size="12.8" lengthAdjust="spacing" textLength="83.9375" x="114" y="131.5875">XYZCommand</text></g><!--class {abstract}\nCommand--><g class="entity" data-qualified-name=".abstract..nCommand" data-source-line="19" id="ent0011"><rect fill="#BC00D1" height="36.6" rx="2" ry="2" style="stroke:#181818;stroke-width:0.8;" width="63.8438" x="124" y="30.4"/><text fill="#FFFFFF" font-family="Arial" font-size="12.8" lengthAdjust="spacing" textLength="54.0813" x="128.8813" y="45.9875">{abstract}</text><text fill="#FFFFFF" font-family="Arial" font-size="12.8" lengthAdjust="spacing" textLength="59.0438" x="126.4" y="60.2875">Command</text></g><g class="entity" data-qualified-name="GMN16" data-source-line="23" id="ent0017"><path d="M4.8,188.8 L4.8,224.4656 A0,0 0 0 0 4.8,224.4656 L171.0188,224.4656 A0,0 0 0 0 171.0188,224.4656 L171.0188,196.8 L163.0188,188.8 L106.2,188.8 L146.832,138.52 L99.8,188.8 L4.8,188.8 A0,0 0 0 0 4.8,188.8" fill="#FEFFDD" style="stroke:#181818;stroke-width:0.4;"/><path d="M163.0188,188.8 L163.0188,196.8 L171.0188,196.8 L163.0188,188.8" fill="#FEFFDD" style="stroke:#181818;stroke-width:0.4;"/><text fill="#000000" font-family="sans-serif" font-size="10.4" lengthAdjust="spacing" textLength="149.4188" x="9.6" y="204.0227">XYZCommand = AddCommand,</text><text fill="#000000" font-family="sans-serif" font-size="10.4" lengthAdjust="spacing" textLength="88.4355" x="41.5363" y="217.8555">EditCommand, etc.</text></g><!--reverse link SplitTokenizer to Parser--><g class="link" data-entity-1="ent0008" data-entity-2="ent0007" data-link-type="dependency" data-source-line="20" id="lnk13"><path codeLine="20" d="M313.151,64.1386 C324.007,78.8106 340.552,101.184 351.368,115.808" fill="none" id="SplitTokenizer-backto-Parser" style="stroke:#181818;stroke-width:0.8;stroke-dasharray:5.6,5.6;"/><polygon fill="#181818" points="310.296,60.28,312.0061,67.9713,312.6752,63.4955,317.1509,64.1646,310.296,60.28" style="stroke:#181818;stroke-width:0.8;"/></g><!--reverse link Disambiguator to Parser--><g class="link" data-entity-1="ent0009" data-entity-2="ent0007" data-link-type="dependency" data-source-line="21" id="lnk15"><path codeLine="21" d="M405.9113,64.1195 C394.9033,78.7915 378.112,101.184 367.144,115.808" fill="none" id="Disambiguator-backto-Parser" style="stroke:#181818;stroke-width:0.8;stroke-dasharray:5.6,5.6;"/><polygon fill="#181818" points="408.792,60.28,401.9113,64.1188,406.3914,63.4796,407.0307,67.9597,408.792,60.28" style="stroke:#181818;stroke-width:0.8;"/></g><!--reverse link XYZCommand to Parser--><g class="link" data-entity-1="ent0010" data-entity-2="ent0007" data-link-type="dependency" data-source-line="25" id="lnk20"><path codeLine="25" d="M205.392,127.2 C247.92,127.2 305.344,127.2 337.76,127.2" fill="none" id="XYZCommand-backto-Parser" style="stroke:#181818;stroke-width:0.8;stroke-dasharray:5.6,5.6;"/><polygon fill="#181818" points="200.592,127.2,207.792,130.4,204.592,127.2,207.792,124,200.592,127.2" style="stroke:#181818;stroke-width:0.8;"/><text fill="#000000" font-family="sans-serif" font-size="10.4" lengthAdjust="spacing" textLength="40.4727" x="249.2" y="121.6227">&#171;create&#187;</text></g><!--link Parser to NumericFilter--><g class="link" data-entity-1="ent0007" data-entity-2="ent0002" data-link-type="dependency" data-source-line="27" id="lnk21"><path codeLine="27" d="M343.128,138.52 C320.376,153.408 283.0404,177.8356 260.2164,192.7716" fill="none" id="Parser-to-NumericFilter" style="stroke:#181818;stroke-width:0.8;stroke-dasharray:5.6,5.6;"/><polygon fill="#181818" points="256.2,195.4,263.9769,194.1351,259.547,193.2097,260.4724,188.7798,256.2,195.4" style="stroke:#181818;stroke-width:0.8;"/></g><!--link Parser to CardSortCriteria--><g class="link" data-entity-1="ent0007" data-entity-2="ent0004" data-link-type="dependency" data-source-line="28" id="lnk22"><path codeLine="28" d="M376.352,138.52 C400.696,153.448 440.9161,178.1067 465.2201,193.0107" fill="none" id="Parser-to-CardSortCriteria" style="stroke:#181818;stroke-width:0.8;stroke-dasharray:5.6,5.6;"/><polygon fill="#181818" points="469.312,195.52,464.847,189.0282,465.9021,193.4289,461.5013,194.484,469.312,195.52" style="stroke:#181818;stroke-width:0.8;"/></g><!--link Parser to CardHistoryType--><g class="link" data-entity-1="ent0007" data-entity-2="ent0003" data-link-type="dependency" data-source-line="29" id="lnk23"><path codeLine="29" d="M359.2,138.52 C359.2,153.408 359.2,175.664 359.2,190.6" fill="none" id="Parser-to-CardHistoryType" style="stroke:#181818;stroke-width:0.8;stroke-dasharray:5.6,5.6;"/><polygon fill="#181818" points="359.2,195.4,362.4,188.2,359.2,191.4,356,188.2,359.2,195.4" style="stroke:#181818;stroke-width:0.8;"/></g><!--link Parser to Box--><g class="link" data-entity-1="ent0007" data-entity-2="ent0005" data-link-type="dependency" data-source-line="30" id="lnk24"><path codeLine="30" d="M380.672,134.856 C430.464,150.76 549.6,188.8 549.6,188.8 C549.6,188.8 551.5272,189.7889 558.6072,193.4129" fill="none" id="Parser-to-Box" style="stroke:#181818;stroke-width:0.8;stroke-dasharray:5.6,5.6;"/><polygon fill="#181818" points="562.88,195.6,557.9289,189.4709,559.3193,193.7774,555.0128,195.1679,562.88,195.6" style="stroke:#181818;stroke-width:0.8;"/></g><!--reverse link {abstract}\nCommand to XYZCommand--><g class="link" data-entity-1="ent0011" data-entity-2="ent0010" data-link-type="extension" data-source-line="32" id="lnk25"><path codeLine="32" d="M156,81.816 C156,96.792 156,103.296 156,115.784" fill="none" id="{abstract}\nCommand-backto-XYZCommand" style="stroke:#181818;stroke-width:0.8;"/><polygon fill="none" points="156,67.416,151.2,81.816,160.8,81.816,156,67.416" style="stroke:#181818;stroke-width:0.8;"/></g><?plantuml-src XPBRJW8n48Rl-nILQza784YoBXXDv91TBiIGa6vtm8QUqiuchiYxMsNHWXXxD_D_q_cdqokXkQmhe0Ks4X9RAqc8tmfjcMEAIg416mlK6jby1eIyY423ijXG1Qe4vmdXadbF9xK29_YTa0YkpMNCLVV2et7DFDmJPGlZC7CYe8ArwLlpIeXbVCiseIDp7XpT4HhEGPyTKhCqBqRvAfi-JlFLB7yOf_aYeWeh1SxD5hHu-vyU2izKAJOr2nulm_lZW4-BvymenNH5i-bud4w6P-G1w-nOwT4nZlkbRWiwVrIq8oMrJGPdpa-r4v-4Q8D0IuDe53Nho5alTdb3qwfgW-kbfgDAu36aW3mXtqqah36qYOfxjD_d3XZ2OF331UPqpv7mQwrdMlmH8kbhxPSVhV_UxKQUFW00?></g></svg>